<?xml version="1.0" encoding="utf-8"?>
<!-- Generator: Adobe Illustrator 23.0.3, SVG Export Plug-In . SVG Version: 6.00 Build 0)  -->
<svg version="1.1" id="Layer_1" xmlns="http://www.w3.org/2000/svg" xmlns:xlink="http://www.w3.org/1999/xlink" x="0px" y="0px"
	 viewBox="0 0 324.6 101.3" style="enable-background:new 0 0 324.6 101.3;" xml:space="preserve">
<style type="text/css">
	.st0{clip-path:url(#SVGID_2_);}
	.st1{enable-background:new    ;}
	.st2{fill:#FFFFFF;}
	.st3{fill:none;stroke:#00FF42;stroke-width:2;stroke-linecap:square;stroke-miterlimit:10;}
</style>
<title>dit-maakt-ons-devani</title>
<g>
	<g id="Layer_1-2">
		<g>
			<defs>
				<polygon id="SVGID_1_" points="324.8,0.6 58.5,0.6 15.2,96.6 324.8,96.6 				"/>
			</defs>
			<clipPath id="SVGID_2_">
				<use xlink:href="#SVGID_1_"  style="overflow:visible;"/>
			</clipPath>
			<g class="st0">
				<g class="st1">
					<path class="st2" d="M48.1,71.5c0,9.6-5.8,17.6-17.4,17.6c-11.4,0-16.9-8-16.9-17.6c0-9.7,6.1-17.6,17.4-17.6
						C41.9,53.9,48.1,61.3,48.1,71.5z M24,71.4c0,6.2,2.1,10.5,7,10.5c5.2,0,6.9-4.6,6.9-10.3c0-6.2-1.8-10.5-7-10.5
						C26.1,61.1,24,65.1,24,71.4z"/>
					<path class="st2" d="M53.6,88.4V54.5h11.9c3.5,7.6,8.7,18,10.1,22.1h0.2c-0.4-3.5-0.5-9.5-0.5-14.9v-7.2h9.1v33.9H73
						c-2.9-6.1-9-18.8-10.6-23.3h-0.1c0.3,3.2,0.3,9.7,0.3,15.7v7.6H53.6z"/>
					<path class="st2" d="M98.6,78.2c0.6,3,2.7,4.2,5.9,4.2c3,0,4.4-1.1,4.4-3c0-2.2-1.5-3.1-6.8-4.3C92,72.6,90,69,90,64.4
						c0-5.7,4.2-10.5,13.6-10.5c9.8,0,13.8,5,14.3,10.3h-9.6c-0.2-1.8-1.2-3.6-4.7-3.6c-2.3,0-3.6,0.8-3.6,2.7
						c0,1.9,1.2,2.6,6.4,3.8c10.4,2.6,12.5,6.4,12.5,11.2c0,6.3-4.9,10.8-14.9,10.8c-9.4,0-14.4-4.4-15.1-10.9H98.6z"/>
					<path class="st2" d="M135,54.5h14.6c10.8,0,17,6.8,17,16.6c0,9.8-6.1,17.3-17.2,17.3H135V54.5z M144.9,81.3h3.8
						c5.4,0,7.6-3.8,7.6-10.1c0-5.6-2.1-9.4-7.5-9.4h-3.9V81.3z"/>
					<path class="st2" d="M197.1,74.7h-15.4v6.3h17.3l-1.1,7.4h-25.7V54.5h25.6v7.4h-16.1v5.5h15.4V74.7z"/>
					<path class="st2" d="M212.4,88.4l-11.6-33.9h10.6l4.2,14.6c1.3,4.5,2.1,7.7,2.9,11.5h0.1c0.6-3.5,1.5-6.7,3-11.4l4.3-14.7h10.2
						l-11.9,33.9H212.4z"/>
					<path class="st2" d="M244.3,81.8l-2,6.6h-9.6l10.7-33.9h12.8l11.1,33.9H257l-2.1-6.6H244.3z M253.2,74.5
						c-1.6-5.3-2.9-10-3.6-13.3h-0.1c-0.8,3.6-2.1,8.5-3.4,13.3H253.2z"/>
					<path class="st2" d="M270.9,88.4V54.5h11.9c3.5,7.6,8.7,18,10.1,22.1h0.2c-0.4-3.5-0.5-9.5-0.5-14.9v-7.2h9.1v33.9h-11.3
						c-2.9-6.1-9-18.8-10.6-23.3h-0.1c0.3,3.2,0.3,9.7,0.3,15.7v7.6H270.9z"/>
					<path class="st2" d="M318.7,54.5v33.9h-10V54.5H318.7z"/>
				</g>
				<g class="st1">
					<path class="st2" d="M35.8,12.9h14.6c10.8,0,17,6.8,17,16.6c0,9.8-6.1,17.3-17.2,17.3H35.8V12.9z M45.8,39.7h3.8
						c5.4,0,7.6-3.8,7.6-10.1c0-5.6-2.1-9.4-7.5-9.4h-3.9V39.7z"/>
					<path class="st2" d="M82.9,12.9v33.9h-10V12.9H82.9z"/>
					<path class="st2" d="M97,20.3h-9.7v-7.4h29.2v7.4H107v26.5H97V20.3z"/>
					<path class="st2" d="M159.9,35.8c0-5.3,0.1-12.1,0.3-16.1h-0.3c-1.4,7.3-3.7,17.3-6.1,27.2h-8c-1.9-9.6-4.2-19.7-5.5-27.2h-0.3
						c0.3,4,0.5,10.6,0.5,16.4v10.8h-8.9V12.9h14.3c1.7,6.9,3.6,16.8,4.4,21.8h0.1c0.9-5.5,3.1-14.5,5.1-21.8h13.9v33.9h-9.5V35.8z"
						/>
					<path class="st2" d="M184.8,40.2l-2,6.6h-9.6l10.7-33.9h12.8l11.1,33.9h-10.4l-2.1-6.6H184.8z M193.7,32.9
						c-1.6-5.3-2.9-10-3.6-13.3h-0.1c-0.8,3.6-2.1,8.5-3.4,13.3H193.7z"/>
					<path class="st2" d="M220.6,40.2l-2,6.6H209l10.7-33.9h12.8l11.1,33.9h-10.4l-2.1-6.6H220.6z M229.5,32.9
						c-1.6-5.3-2.9-10-3.6-13.3h-0.1c-0.8,3.6-2.1,8.5-3.4,13.3H229.5z"/>
					<path class="st2" d="M247.2,12.9h9.9v13.8c2.2-3.1,7.2-9.3,10.5-13.8h11.8l-12.4,13.9l12.9,20h-11.6L260,33.3l-3,3.1v10.5h-9.9
						V12.9z"/>
					<path class="st2" d="M290.8,20.3h-9.7v-7.4h29.2v7.4h-9.6v26.5h-9.9V20.3z"/>
				</g>
			</g>
		</g>
		<line class="st3" x1="1.3" y1="96.3" x2="47.3" y2="1.3"/>
	</g>
</g>
</svg>
