<?xml version="1.0" encoding="utf-8"?>
<!-- Generator: Adobe Illustrator 23.0.3, SVG Export Plug-In . SVG Version: 6.00 Build 0)  -->
<svg version="1.1" id="Layer_1" xmlns="http://www.w3.org/2000/svg" xmlns:xlink="http://www.w3.org/1999/xlink" x="0px" y="0px"
	 viewBox="0 0 308.4 101.3" style="enable-background:new 0 0 308.4 101.3;" xml:space="preserve">
<style type="text/css">
	.st0{clip-path:url(#SVGID_2_);}
	.st1{enable-background:new    ;}
	.st2{fill:#1A1A1A;}
	.st3{fill:none;stroke:#00FF42;stroke-width:2;stroke-linecap:square;stroke-miterlimit:10;}
</style>
<title>mooie-projecten</title>
<g>
	<g id="Layer_1-2">
		<g>
			<defs>
				<polygon id="SVGID_1_" points="324.8,0.6 58.5,0.6 15.2,96.6 324.8,96.6 				"/>
			</defs>
			<clipPath id="SVGID_2_">
				<use xlink:href="#SVGID_1_"  style="overflow:visible;"/>
			</clipPath>
			<g class="st0">
				<g class="st1">
					<path class="st2" d="M18.3,54.5H34c7.7,0,12.8,4.3,12.8,10.9c0,7.6-5.9,11.1-13,11.1h-5.7v11.9h-9.8V54.5z M28.1,69.5h4.1
						c2.8,0,4.8-1.2,4.8-4c0-2.9-2-4-4.8-4h-4.1V69.5z"/>
					<path class="st2" d="M61.2,75.6v12.8h-9.6V54.5h16.8c8,0,11.9,4.3,11.9,9.4c0,4.7-2.8,7.1-5.1,8c2.1,0.7,4.4,3,4.4,8.8v1.4
						c0,2.1,0.1,4.8,0.4,6.3h-9.4c-0.5-1.5-0.7-3.9-0.7-7.4v-0.9c0-3-0.7-4.5-5.1-4.5H61.2z M61.2,68.7h4.6c3.3,0,4.5-1.4,4.5-3.6
						c0-2.3-1.4-3.6-4.5-3.6h-4.6V68.7z"/>
					<path class="st2" d="M118.5,71.5c0,9.6-5.8,17.6-17.4,17.6c-11.4,0-16.9-8-16.9-17.6c0-9.7,6.1-17.6,17.4-17.6
						C112.3,53.9,118.5,61.3,118.5,71.5z M94.4,71.4c0,6.2,2.1,10.5,7,10.5c5.2,0,6.9-4.6,6.9-10.3c0-6.2-1.8-10.5-7-10.5
						C96.5,61.1,94.4,65.1,94.4,71.4z"/>
					<path class="st2" d="M136.7,76.8c0,8.2-2.8,12.2-11.5,12.2c-1.8,0-3.8-0.1-5-0.4v-7.2c0.7,0,2,0.1,3,0.1c3,0,3.5-1.8,3.5-4.1
						V54.5h9.9V76.8z"/>
					<path class="st2" d="M168.4,74.7h-15.4v6.3h17.3l-1.1,7.4h-25.7V54.5H169v7.4h-16.1v5.5h15.4V74.7z"/>
					<path class="st2" d="M205.9,77.3c-1.3,7.1-6.4,11.8-15.7,11.8c-11.1,0-16.5-7.5-16.5-17.3c0-9.6,5.3-17.9,17-17.9
						c9.9,0,14.5,5.8,15.2,11.7H196c-0.5-2.4-1.9-4.7-5.6-4.7c-4.8,0-6.5,4.6-6.5,10.5c0,5.4,1.4,10.7,6.6,10.7c4,0,5.1-2.9,5.5-4.8
						H205.9z"/>
					<path class="st2" d="M218.2,61.9h-9.7v-7.4h29.2v7.4h-9.6v26.5h-9.9V61.9z"/>
					<path class="st2" d="M266.7,74.7h-15.4v6.3h17.3l-1.1,7.4h-25.7V54.5h25.6v7.4h-16.1v5.5h15.4V74.7z"/>
					<path class="st2" d="M273.1,88.4V54.5H285c3.5,7.6,8.7,18,10.1,22.1h0.2c-0.4-3.5-0.5-9.5-0.5-14.9v-7.2h9.1v33.9h-11.3
						c-2.9-6.1-9-18.8-10.6-23.3h-0.1c0.3,3.2,0.3,9.7,0.3,15.7v7.6H273.1z"/>
				</g>
				<g class="st1">
					<path class="st2" d="M67.1,35.8c0-5.3,0.1-12.1,0.3-16.1h-0.3C65.7,26.9,63.4,37,61,46.8h-8c-1.9-9.6-4.2-19.7-5.5-27.2h-0.3
						c0.3,4,0.5,10.6,0.5,16.4v10.8h-8.9V12.9h14.3c1.7,6.9,3.6,16.8,4.4,21.8h0.1c0.9-5.5,3.1-14.5,5.1-21.8h13.9v33.9h-9.5V35.8z"
						/>
					<path class="st2" d="M116.4,29.9c0,9.6-5.8,17.6-17.4,17.6c-11.4,0-16.9-8-16.9-17.6c0-9.7,6.1-17.6,17.4-17.6
						C110.2,12.3,116.4,19.7,116.4,29.9z M92.4,29.8c0,6.2,2.1,10.5,7,10.5c5.2,0,6.9-4.6,6.9-10.3c0-6.2-1.8-10.5-7-10.5
						C94.4,19.5,92.4,23.5,92.4,29.8z"/>
					<path class="st2" d="M154.8,29.9c0,9.6-5.8,17.6-17.4,17.6c-11.4,0-16.9-8-16.9-17.6c0-9.7,6.1-17.6,17.4-17.6
						C148.6,12.3,154.8,19.7,154.8,29.9z M130.8,29.8c0,6.2,2.1,10.5,7,10.5c5.2,0,6.9-4.6,6.9-10.3c0-6.2-1.8-10.5-7-10.5
						C132.9,19.5,130.8,23.5,130.8,29.8z"/>
					<path class="st2" d="M170.3,12.9v33.9h-10V12.9H170.3z"/>
					<path class="st2" d="M202.3,33.1h-15.4v6.3h17.3l-1.1,7.4h-25.7V12.9h25.6v7.4h-16.1v5.5h15.4V33.1z"/>
				</g>
			</g>
		</g>
		<line class="st3" x1="1.3" y1="96.3" x2="47.3" y2="1.3"/>
	</g>
</g>
</svg>
