<?xml version="1.0" encoding="UTF-8"?>
<svg width="947px" height="327px" viewBox="0 0 947 327" version="1.1" xmlns="http://www.w3.org/2000/svg" xmlns:xlink="http://www.w3.org/1999/xlink">
    <defs>
        <polygon id="path-1" points="148.30609 0 0 328.343389 630.179214 328.343389 630.179214 0"></polygon>
        <polygon id="path-3" points="0.00129779996 0 0.00129779996 328.343389 443.205174 328.343389 591.511264 0"></polygon>
    </defs>
    <g id="Home" stroke="none" stroke-width="1" fill="none" fill-rule="evenodd">
        <g id="Desktop-HD---Home" transform="translate(-250.000000, -355.000000)">
            <g id="Hero">
                <g id="Heading-DEF" transform="translate(191.000000, 357.000000)">
                    <path d="M471.616388,322.503289 L616.969983,0" id="Line" stroke="#00FF42" stroke-width="2.59559991" stroke-linecap="square" fill-rule="nonzero"></path>
                    <path d="M643.043223,58.7678969 C643.043223,65.4891169 637.919423,69.1661969 632.072263,69.1661969 L623.904323,69.1661969 C623.723483,69.1661969 623.663203,69.1360569 623.663203,68.9552169 L623.663203,68.5031169 C623.663203,68.3222769 623.723483,68.2619969 623.904323,68.2619969 L625.471603,68.2318569 C626.194963,68.2017169 626.225103,68.0208769 626.225103,65.7302369 L626.225103,52.2576569 C626.225103,49.9670169 626.194963,49.7861769 625.471603,49.7560369 L623.904323,49.7258969 C623.723483,49.7258969 623.663203,49.6656169 623.663203,49.4847769 L623.663203,49.0326769 C623.663203,48.8518369 623.723483,48.8216969 623.904323,48.8216969 L631.529743,48.8216969 C638.190683,48.8216969 643.043223,52.0768169 643.043223,58.7678969 Z M639.305863,58.9788769 C639.305863,52.2576569 636.713823,49.9368769 631.559883,49.9368769 L629.450083,49.9368769 L629.450083,68.0510169 L631.951703,68.0510169 C637.346763,68.0510169 639.305863,65.3082769 639.305863,58.9788769 Z M659.562916,64.9767369 C659.020396,67.3879369 657.031156,69.5580169 653.595196,69.5580169 C649.556436,69.5580169 646.783556,66.5741569 646.783556,61.7216169 C646.783556,57.4115969 649.164616,53.4029769 653.745896,53.4029769 C656.759896,53.4029769 659.653336,55.3922169 659.653336,59.4912569 L659.653336,59.7323769 C659.653336,60.5461569 659.412216,60.7872769 658.447736,60.7872769 L649.918116,60.7872769 L649.918116,61.4202169 C649.918116,65.4288369 650.973016,68.0811569 654.348696,68.0811569 C656.759896,68.0811569 658.176476,66.7549969 658.809416,64.7958969 C658.869696,64.6150569 658.929976,64.5246369 659.110816,64.5849169 L659.442356,64.6753369 C659.593056,64.7054769 659.623196,64.7958969 659.562916,64.9767369 Z M656.609196,58.6171969 C656.609196,55.8443169 655.463876,54.3674569 653.384216,54.3674569 C650.822316,54.3674569 649.948256,56.7183769 649.948256,59.8227969 L655.132336,59.8227969 C656.307796,59.8227969 656.609196,59.5816769 656.609196,58.6171969 Z M677.077229,54.6387169 L676.775829,54.6688569 C676.112749,54.7291369 675.811349,55.1510969 675.329109,56.2964169 C675.087989,56.8389369 674.696169,57.8636969 674.244069,59.0692969 L670.325869,69.3470369 C670.265589,69.4977369 670.235449,69.5580169 670.024469,69.5580169 L669.240829,69.5580169 C669.059989,69.5580169 668.999709,69.5278769 668.939429,69.3470369 L664.147169,57.3211769 C663.182689,54.9099769 663.001849,54.7592769 662.188069,54.6688569 L662.007229,54.6387169 C661.826389,54.6387169 661.766109,54.6085769 661.766109,54.4277369 L661.766109,54.0057769 C661.766109,53.8249369 661.826389,53.7947969 662.007229,53.7947969 L668.125649,53.7947969 C668.306489,53.7947969 668.366769,53.8249369 668.366769,54.0057769 L668.366769,54.4277369 C668.366769,54.6085769 668.306489,54.6387169 668.125649,54.6387169 L667.372149,54.6688569 C666.889909,54.6989969 666.588509,54.7894169 666.588509,55.2415169 C666.588509,55.6634769 666.769349,56.2662769 667.161169,57.3211769 L670.386149,66.1220569 L670.416289,66.1220569 L672.948049,59.0994369 C673.309729,58.1349569 673.731689,56.9293569 673.731689,56.0552969 C673.731689,55.1812369 673.339869,54.6989969 672.586369,54.6688569 L671.802729,54.6387169 C671.621889,54.6387169 671.531469,54.6085769 671.531469,54.4277369 L671.531469,54.0057769 C671.531469,53.8249369 671.591749,53.7947969 671.772589,53.7947969 L677.077229,53.7947969 C677.258069,53.7947969 677.318349,53.8249369 677.318349,54.0057769 L677.318349,54.4277369 C677.318349,54.6085769 677.258069,54.6387169 677.077229,54.6387169 Z M691.035022,66.2124769 C691.035022,67.8400369 691.276142,68.4428369 691.969362,68.4428369 C692.481742,68.4428369 692.813282,68.0208769 693.024262,67.5687769 C693.084542,67.4180769 693.144822,67.3577969 693.295522,67.4180769 L693.536642,67.5386369 C693.687342,67.5989169 693.717482,67.6893369 693.627062,67.8701769 C693.235242,68.8346569 692.481742,69.5580169 691.215862,69.5580169 C689.497882,69.5580169 688.593682,68.5633969 688.533402,66.6344369 L688.473122,66.6344369 C687.327802,68.5935369 685.881082,69.5580169 683.711002,69.5580169 C681.510782,69.5580169 679.672242,68.3222769 679.672242,65.7302369 C679.672242,63.1683369 680.968262,62.0531569 684.494642,60.9681169 C688.292282,59.8227969 688.292282,59.6118169 688.292282,58.6774769 L688.292282,57.9239769 C688.292282,55.3319369 686.785282,54.4880169 685.097442,54.4880169 C684.132962,54.4880169 683.319182,54.7592769 682.656102,55.1812369 C682.957502,55.8141769 683.078062,56.4471169 683.078062,56.9293569 C683.078062,57.7129969 682.806802,58.3157969 681.842322,58.3157969 C680.907982,58.3157969 680.305182,57.9239769 680.305182,56.9293569 C680.305182,55.2415169 682.897222,53.4029769 685.881082,53.4029769 C688.653962,53.4029769 691.035022,54.9099769 691.035022,58.3157969 L691.035022,66.2124769 Z M688.292282,65.7905169 L688.292282,60.6365769 C687.207242,60.9379769 686.031782,61.3599369 685.067302,61.7818969 C683.439742,62.5353969 682.716382,63.4395969 682.716382,65.2178569 C682.716382,66.8152769 683.409602,68.1414369 685.007022,68.1414369 C686.453742,68.1414369 687.568922,67.1769569 688.292282,65.7905169 Z M713.281315,69.1661969 L706.288835,69.1661969 C706.107995,69.1661969 706.047715,69.1360569 706.047715,68.9552169 L706.047715,68.5633969 C706.047715,68.3825569 706.107995,68.3222769 706.288835,68.3222769 L707.494435,68.2921369 C708.217795,68.2921369 708.247935,68.1112969 708.247935,65.8206569 L708.247935,58.5569169 C708.247935,55.7538969 707.012195,54.8195569 704.992815,54.8195569 C703.063855,54.8195569 701.888395,55.8443169 701.044475,57.4417369 L701.044475,65.8206569 C701.044475,68.1112969 701.074615,68.2921369 701.828115,68.2921369 L703.003575,68.3222769 C703.184415,68.3222769 703.244695,68.3825569 703.244695,68.5633969 L703.244695,68.9552169 C703.244695,69.1360569 703.184415,69.1661969 703.003575,69.1661969 L696.041235,69.1661969 C695.860395,69.1661969 695.800115,69.1360569 695.800115,68.9552169 L695.800115,68.5633969 C695.800115,68.3825569 695.860395,68.3222769 696.041235,68.3222769 L697.548235,68.2921369 C698.271595,68.2921369 698.301735,68.1112969 698.301735,65.8206569 L698.301735,57.1704769 C698.301735,54.8798369 698.271595,54.6989969 697.548235,54.6688569 L696.041235,54.6387169 C695.860395,54.6387169 695.800115,54.6085769 695.800115,54.4277369 L695.800115,54.0057769 C695.800115,53.8249369 695.860395,53.7947969 696.041235,53.7947969 L700.532095,53.7947969 C700.712935,53.7947969 700.803355,53.9153569 700.803355,54.1564769 L700.803355,56.4772569 L700.863635,56.4772569 C701.737695,54.7291369 703.425535,53.4029769 706.077855,53.4029769 C708.398635,53.4029769 710.990675,54.5482969 710.990675,58.6473369 L710.990675,65.8206569 C710.990675,68.1112969 711.020815,68.2921369 711.774315,68.2921369 L713.281315,68.3222769 C713.462155,68.3222769 713.522435,68.3825569 713.522435,68.5633969 L713.522435,68.9552169 C713.522435,69.1360569 713.462155,69.1661969 713.281315,69.1661969 Z M723.260628,69.1661969 L715.996888,69.1661969 C715.816048,69.1661969 715.755768,69.1360569 715.755768,68.9552169 L715.755768,68.5633969 C715.755768,68.3825569 715.816048,68.3222769 715.996888,68.3222769 L717.503888,68.2921369 C718.227248,68.2921369 718.257388,68.1112969 718.257388,65.8206569 L718.257388,57.1704769 C718.257388,54.8798369 718.227248,54.6989969 717.503888,54.6688569 L715.996888,54.6387169 C715.816048,54.6387169 715.755768,54.6085769 715.755768,54.4277369 L715.755768,54.0057769 C715.755768,53.8249369 715.816048,53.7947969 715.996888,53.7947969 L720.728868,53.7947969 C720.939848,53.7947969 721.000128,53.9153569 721.000128,54.1564769 L721.000128,65.8206569 C721.000128,68.1112969 721.030268,68.2921369 721.783768,68.2921369 L723.260628,68.3222769 C723.441468,68.3222769 723.501748,68.3825569 723.501748,68.5633969 L723.501748,68.9552169 C723.501748,69.1360569 723.441468,69.1661969 723.260628,69.1661969 Z M721.301528,48.1887569 C721.301528,49.1532369 720.578168,49.8765969 719.643828,49.8765969 C718.709488,49.8765969 717.986128,49.1230969 717.986128,48.1887569 C717.986128,47.2544169 718.739628,46.5009169 719.643828,46.5009169 C720.578168,46.5009169 721.301528,47.2544169 721.301528,48.1887569 Z M751.718734,69.3168969 L751.357054,69.3168969 C751.176214,69.3168969 751.115934,69.2264769 751.115934,69.0456369 L751.025514,68.4428369 C749.639074,69.0757769 747.559414,69.5580169 745.449614,69.5580169 C739.512034,69.5580169 735.895234,65.2178569 735.895234,59.2802769 C735.895234,53.0714369 739.150354,48.4298769 745.419474,48.4298769 C747.137454,48.4298769 748.885574,48.7915569 750.211734,49.5450569 L750.332294,48.9422569 C750.362434,48.7312769 750.392574,48.6709969 750.573414,48.6709969 L750.935094,48.6709969 C751.115934,48.6709969 751.146074,48.7011369 751.146074,48.9422569 L751.146074,54.9099769 C751.146074,55.0908169 751.115934,55.1510969 750.904954,55.1510969 L750.452854,55.1510969 C750.272014,55.1510969 750.211734,55.0908169 750.211734,54.9099769 L750.211734,54.3674569 C750.181594,51.5945769 748.132074,49.3943569 745.329054,49.3943569 C740.566934,49.3943569 739.602454,53.4632569 739.602454,59.3104169 C739.602454,63.7409969 740.717634,68.5633969 745.540034,68.5633969 C749.036274,68.5633969 750.904954,66.6042969 751.176214,63.3491769 L751.266634,62.5956769 C751.266634,62.4148369 751.296774,62.3545569 751.477614,62.3545569 L751.959854,62.3545569 C752.170834,62.3545569 752.200974,62.4148369 752.200974,62.5956769 L751.929714,69.0456369 C751.929714,69.2264769 751.899574,69.3168969 751.718734,69.3168969 Z M763.476307,69.1661969 L755.609767,69.1661969 C755.428927,69.1661969 755.368647,69.1360569 755.368647,68.9552169 L755.368647,68.5633969 C755.368647,68.3825569 755.428927,68.3222769 755.609767,68.3222769 L757.116767,68.2921369 C757.840127,68.2921369 757.870267,68.1112969 757.870267,65.8206569 L757.870267,57.7732769 C757.870267,54.7894169 757.568867,54.6989969 756.815367,54.6688569 L755.609767,54.6387169 C755.428927,54.6387169 755.368647,54.6085769 755.368647,54.4277369 L755.368647,54.0057769 C755.368647,53.8249369 755.428927,53.7947969 755.609767,53.7947969 L760.010207,53.7947969 C760.221187,53.7947969 760.281467,53.9153569 760.281467,54.1564769 L760.281467,56.8992169 L760.371887,56.8992169 C761.336367,54.6688569 762.783087,53.4029769 764.531207,53.4029769 C766.038207,53.4029769 767.123247,54.5482969 767.123247,56.2059969 C767.123247,57.2307569 766.490307,57.6527169 765.495687,57.6527169 C764.531207,57.6527169 764.109247,57.1403369 764.109247,56.4169769 C764.109247,55.8744569 764.290087,55.3017969 764.501067,54.8195569 C764.380507,54.7592769 764.229807,54.6989969 764.048967,54.6989969 C762.722807,54.6989969 761.667907,55.6936169 760.613007,57.8335569 L760.613007,65.8206569 C760.613007,68.1112969 760.643147,68.2921369 761.396647,68.2921369 L763.476307,68.3222769 C763.657147,68.3222769 763.717427,68.3825569 763.717427,68.5633969 L763.717427,68.9552169 C763.717427,69.1360569 763.657147,69.1661969 763.476307,69.1661969 Z M781.8044,64.9767369 C781.26188,67.3879369 779.27264,69.5580169 775.83668,69.5580169 C771.79792,69.5580169 769.02504,66.5741569 769.02504,61.7216169 C769.02504,57.4115969 771.4061,53.4029769 775.98738,53.4029769 C779.00138,53.4029769 781.89482,55.3922169 781.89482,59.4912569 L781.89482,59.7323769 C781.89482,60.5461569 781.6537,60.7872769 780.68922,60.7872769 L772.1596,60.7872769 L772.1596,61.4202169 C772.1596,65.4288369 773.2145,68.0811569 776.59018,68.0811569 C779.00138,68.0811569 780.41796,66.7549969 781.0509,64.7958969 C781.11118,64.6150569 781.17146,64.5246369 781.3523,64.5849169 L781.68384,64.6753369 C781.83454,64.7054769 781.86468,64.7958969 781.8044,64.9767369 Z M778.85068,58.6171969 C778.85068,55.8443169 777.70536,54.3674569 775.6257,54.3674569 C773.0638,54.3674569 772.18974,56.7183769 772.18974,59.8227969 L777.37382,59.8227969 C778.54928,59.8227969 778.85068,59.5816769 778.85068,58.6171969 Z M797.058213,66.2124769 C797.058213,67.8400369 797.299333,68.4428369 797.992553,68.4428369 C798.504933,68.4428369 798.836473,68.0208769 799.047453,67.5687769 C799.107733,67.4180769 799.168013,67.3577969 799.318713,67.4180769 L799.559833,67.5386369 C799.710533,67.5989169 799.740673,67.6893369 799.650253,67.8701769 C799.258433,68.8346569 798.504933,69.5580169 797.239053,69.5580169 C795.521073,69.5580169 794.616873,68.5633969 794.556593,66.6344369 L794.496313,66.6344369 C793.350993,68.5935369 791.904273,69.5580169 789.734193,69.5580169 C787.533973,69.5580169 785.695433,68.3222769 785.695433,65.7302369 C785.695433,63.1683369 786.991453,62.0531569 790.517833,60.9681169 C794.315473,59.8227969 794.315473,59.6118169 794.315473,58.6774769 L794.315473,57.9239769 C794.315473,55.3319369 792.808473,54.4880169 791.120633,54.4880169 C790.156153,54.4880169 789.342373,54.7592769 788.679293,55.1812369 C788.980693,55.8141769 789.101253,56.4471169 789.101253,56.9293569 C789.101253,57.7129969 788.829993,58.3157969 787.865513,58.3157969 C786.931173,58.3157969 786.328373,57.9239769 786.328373,56.9293569 C786.328373,55.2415169 788.920413,53.4029769 791.904273,53.4029769 C794.677153,53.4029769 797.058213,54.9099769 797.058213,58.3157969 L797.058213,66.2124769 Z M794.315473,65.7905169 L794.315473,60.6365769 C793.230433,60.9379769 792.054973,61.3599369 791.090493,61.7818969 C789.462933,62.5353969 788.739573,63.4395969 788.739573,65.2178569 C788.739573,66.8152769 789.432793,68.1414369 791.030213,68.1414369 C792.476933,68.1414369 793.592113,67.1769569 794.315473,65.7905169 Z M811.257126,66.7549969 C810.895446,68.3825569 809.750126,69.5580169 807.881446,69.5580169 C805.590806,69.5580169 804.053666,67.9605969 804.053666,65.1877169 L804.053666,54.8195569 L801.793166,54.8195569 C801.582186,54.8195569 801.521906,54.7894169 801.521906,54.6085769 L801.521906,54.2167569 C801.521906,54.0057769 801.582186,53.9756369 801.763026,53.9756369 L804.053666,53.7947969 L804.053666,50.7807969 C804.053666,50.5999569 804.083806,50.5396769 804.234506,50.4492569 C804.988006,49.9670169 805.560666,49.4847769 806.223746,48.7915569 C806.374446,48.6408569 806.404586,48.5805769 806.555286,48.5805769 L806.615566,48.5805769 C806.766266,48.5805769 806.796406,48.6107169 806.796406,48.7915569 L806.796406,53.7947969 L810.383066,53.7947969 C810.594046,53.7947969 810.654326,53.8249369 810.654326,54.0057769 L810.654326,54.5784369 C810.654326,54.7894169 810.594046,54.8195569 810.413206,54.8195569 L806.796406,54.8195569 L806.796406,65.5192569 C806.796406,67.2975169 807.248506,68.2921369 808.574666,68.2921369 C809.569286,68.2921369 810.172086,67.7496169 810.473486,66.6042969 C810.503626,66.4234569 810.594046,66.3631769 810.744746,66.3933169 L811.106426,66.4535969 C811.257126,66.4837369 811.287266,66.6042969 811.257126,66.7549969 Z M821.115879,69.1661969 L813.852139,69.1661969 C813.671299,69.1661969 813.611019,69.1360569 813.611019,68.9552169 L813.611019,68.5633969 C813.611019,68.3825569 813.671299,68.3222769 813.852139,68.3222769 L815.359139,68.2921369 C816.082499,68.2921369 816.112639,68.1112969 816.112639,65.8206569 L816.112639,57.1704769 C816.112639,54.8798369 816.082499,54.6989969 815.359139,54.6688569 L813.852139,54.6387169 C813.671299,54.6387169 813.611019,54.6085769 813.611019,54.4277369 L813.611019,54.0057769 C813.611019,53.8249369 813.671299,53.7947969 813.852139,53.7947969 L818.584119,53.7947969 C818.795099,53.7947969 818.855379,53.9153569 818.855379,54.1564769 L818.855379,65.8206569 C818.855379,68.1112969 818.885519,68.2921369 819.639019,68.2921369 L821.115879,68.3222769 C821.296719,68.3222769 821.356999,68.3825569 821.356999,68.5633969 L821.356999,68.9552169 C821.356999,69.1360569 821.296719,69.1661969 821.115879,69.1661969 Z M819.156779,48.1887569 C819.156779,49.1532369 818.433419,49.8765969 817.499079,49.8765969 C816.564739,49.8765969 815.841379,49.1230969 815.841379,48.1887569 C815.841379,47.2544169 816.594879,46.5009169 817.499079,46.5009169 C818.433419,46.5009169 819.156779,47.2544169 819.156779,48.1887569 Z M838.117812,54.6387169 L837.816412,54.6688569 C837.153332,54.7291369 836.851932,55.1510969 836.369692,56.2964169 C836.128572,56.8389369 835.736752,57.8636969 835.284652,59.0692969 L831.366452,69.3470369 C831.306172,69.4977369 831.276032,69.5580169 831.065052,69.5580169 L830.281412,69.5580169 C830.100572,69.5580169 830.040292,69.5278769 829.980012,69.3470369 L825.187752,57.3211769 C824.223272,54.9099769 824.042432,54.7592769 823.228652,54.6688569 L823.047812,54.6387169 C822.866972,54.6387169 822.806692,54.6085769 822.806692,54.4277369 L822.806692,54.0057769 C822.806692,53.8249369 822.866972,53.7947969 823.047812,53.7947969 L829.166232,53.7947969 C829.347072,53.7947969 829.407352,53.8249369 829.407352,54.0057769 L829.407352,54.4277369 C829.407352,54.6085769 829.347072,54.6387169 829.166232,54.6387169 L828.412732,54.6688569 C827.930492,54.6989969 827.629092,54.7894169 827.629092,55.2415169 C827.629092,55.6634769 827.809932,56.2662769 828.201752,57.3211769 L831.426732,66.1220569 L831.456872,66.1220569 L833.988632,59.0994369 C834.350312,58.1349569 834.772272,56.9293569 834.772272,56.0552969 C834.772272,55.1812369 834.380452,54.6989969 833.626952,54.6688569 L832.843312,54.6387169 C832.662472,54.6387169 832.572052,54.6085769 832.572052,54.4277369 L832.572052,54.0057769 C832.572052,53.8249369 832.632332,53.7947969 832.813172,53.7947969 L838.117812,53.7947969 C838.298652,53.7947969 838.358932,53.8249369 838.358932,54.0057769 L838.358932,54.4277369 C838.358932,54.6085769 838.298652,54.6387169 838.117812,54.6387169 Z M852.768825,64.9767369 C852.226305,67.3879369 850.237065,69.5580169 846.801105,69.5580169 C842.762345,69.5580169 839.989465,66.5741569 839.989465,61.7216169 C839.989465,57.4115969 842.370525,53.4029769 846.951805,53.4029769 C849.965805,53.4029769 852.859245,55.3922169 852.859245,59.4912569 L852.859245,59.7323769 C852.859245,60.5461569 852.618125,60.7872769 851.653645,60.7872769 L843.124025,60.7872769 L843.124025,61.4202169 C843.124025,65.4288369 844.178925,68.0811569 847.554605,68.0811569 C849.965805,68.0811569 851.382385,66.7549969 852.015325,64.7958969 C852.075605,64.6150569 852.135885,64.5246369 852.316725,64.5849169 L852.648265,64.6753369 C852.798965,64.7054769 852.829105,64.7958969 852.768825,64.9767369 Z M849.815105,58.6171969 C849.815105,55.8443169 848.669785,54.3674569 846.590125,54.3674569 C844.028225,54.3674569 843.154165,56.7183769 843.154165,59.8227969 L848.338245,59.8227969 C849.513705,59.8227969 849.815105,59.5816769 849.815105,58.6171969 Z" id="Devani-Creative" fill="#FFFFFF"></path>
                    <g id="RIGHT" transform="translate(448.935785, 90.166197)">
                        <mask id="mask-2" fill="white">
                            <use xlink:href="#path-1"></use>
                        </mask>
                        <g id="Clip-1"></g>
                        <path d="M101.935308,93.4134994 L101.935308,25.4555025 L135.766358,25.4555025 C152.139402,25.4555025 159.339596,33.6420246 159.339596,43.1107731 C159.339596,50.4096 155.59155,55.5385055 150.068113,57.8070598 C155.197018,59.5824501 161.213619,64.4154572 161.213619,73.1937761 C161.213619,84.3392821 152.928464,93.4134994 135.963623,93.4134994 L101.935308,93.4134994 Z M121.267336,51.6918264 L132.412842,51.6918264 C137.837646,51.6918264 140.106201,48.8314753 140.106201,45.1820618 C140.106201,40.9408516 137.048584,38.8695628 132.215577,38.8695628 L121.267336,38.8695628 L121.267336,51.6918264 Z M121.267336,65.0072539 L121.267336,79.999439 L131.426514,79.999439 C138.034912,79.999439 140.79663,77.2377207 140.79663,72.3060809 C140.79663,68.0648706 138.133545,65.0072539 131.821046,65.0072539 L121.267336,65.0072539 Z M221.01105,51.1986624 L221.01105,65.8949491 L190.040352,65.8949491 L190.040352,78.6185799 L224.660463,78.6185799 L222.391909,93.4134994 L170.905589,93.4134994 L170.905589,25.4555025 L222.293276,25.4555025 L222.293276,40.250422 L190.040352,40.250422 L190.040352,51.1986624 L221.01105,51.1986624 Z M252.106337,93.4134994 L233.859269,93.4134994 L233.859269,25.4555025 L257.728406,25.4555025 C264.829968,40.743586 275.186411,61.4564733 278.046762,69.840261 L278.441294,69.840261 C277.652231,62.7386996 277.454966,50.8041312 277.454966,39.9545236 L277.454966,25.4555025 L295.6034,25.4555025 L295.6034,93.4134994 L272.917857,93.4134994 C267.197155,81.0843998 254.868055,55.6371383 251.613173,46.6615538 L251.415907,46.6615538 C252.007704,53.0726855 252.106337,66.1908475 252.106337,78.1254159 L252.106337,93.4134994 Z M360.062528,25.4555025 L360.062528,70.1361594 C360.062528,86.6078364 354.440459,94.4984602 337.081087,94.4984602 C333.431673,94.4984602 329.387729,94.2025618 327.119174,93.610765 L327.119174,79.2103767 C328.500033,79.3090095 331.163119,79.5062751 333.135775,79.5062751 C339.053743,79.5062751 340.237336,75.9554944 340.237336,71.2211201 L340.237336,25.4555025 L360.062528,25.4555025 Z M423.706638,51.1986624 L423.706638,65.8949491 L392.73594,65.8949491 L392.73594,78.6185799 L427.356052,78.6185799 L425.087497,93.4134994 L373.601178,93.4134994 L373.601178,25.4555025 L424.988865,25.4555025 L424.988865,40.250422 L392.73594,40.250422 L392.73594,51.1986624 L423.706638,51.1986624 Z" id="-BEN-JE" fill="#FEFEFE" mask="url(#mask-2)"></path>
                        <path d="M98.161306,176.462314 L79.9142386,176.462314 L79.9142386,108.504317 L103.783375,108.504317 C110.884937,123.792401 121.24138,144.505288 124.101732,152.889076 L124.496263,152.889076 C123.7072,145.787514 123.509935,133.852946 123.509935,123.003338 L123.509935,108.504317 L141.658369,108.504317 L141.658369,176.462314 L118.972826,176.462314 C113.252124,164.133215 100.923024,138.685953 97.668142,129.710369 L97.4708764,129.710369 C98.0626732,136.1215 98.161306,149.239662 98.161306,161.174231 L98.161306,176.462314 Z M205.795643,134.247477 L205.795643,148.943764 L174.824945,148.943764 L174.824945,161.667395 L209.445057,161.667395 L207.176502,176.462314 L155.690182,176.462314 L155.690182,108.504317 L207.07787,108.504317 L207.07787,123.299237 L174.824945,123.299237 L174.824945,134.247477 L205.795643,134.247477 Z M244.978819,150.817787 L237.975891,150.817787 L237.975891,176.462314 L218.643863,176.462314 L218.643863,108.504317 L252.277646,108.504317 C268.354792,108.504317 276.04815,117.085371 276.04815,127.343181 C276.04815,136.713297 270.524714,141.546304 265.888972,143.420327 C270.130183,144.899819 274.667291,149.436928 274.667291,160.976965 L274.667291,163.837316 C274.667291,168.078527 274.864557,173.50333 275.554986,176.462314 L256.617489,176.462314 C255.532529,173.50333 255.23663,168.57169 255.23663,161.667395 L255.23663,159.892004 C255.23663,153.974037 253.757138,150.817787 244.978819,150.817787 Z M237.975891,122.411542 L237.975891,136.910563 L247.247374,136.910563 C253.855771,136.910563 256.222958,134.148844 256.222958,129.611736 C256.222958,125.074627 253.362607,122.411542 247.247374,122.411542 L237.975891,122.411542 Z M349.950071,137.50236 L349.950071,176.462314 L336.634644,176.462314 C336.042847,174.588291 335.549683,171.826573 335.352417,170.248448 C331.505738,175.377353 324.897341,177.843173 315.527225,177.843173 C294.715705,177.843173 284.161996,162.160559 284.161996,143.321695 C284.161996,122.411542 296.29383,107.222091 318.979373,107.222091 C339.494995,107.222091 348.86511,118.959394 350.147337,129.41447 L330.420777,129.41447 C329.434449,125.86369 326.96863,121.326581 318.88074,121.326581 C307.537969,121.326581 304.677617,131.683025 304.677617,142.631265 C304.677617,153.283607 307.9325,163.738683 318.979373,163.738683 C328.941285,163.738683 330.716676,156.341224 330.716676,151.902748 L330.716676,151.409584 L318.288943,151.409584 L318.288943,137.50236 L349.950071,137.50236 Z M413.002384,134.247477 L413.002384,148.943764 L382.031686,148.943764 L382.031686,161.667395 L416.651798,161.667395 L414.383243,176.462314 L362.896924,176.462314 L362.896924,108.504317 L414.284611,108.504317 L414.284611,123.299237 L382.031686,123.299237 L382.031686,134.247477 L413.002384,134.247477 Z M444.097671,176.462314 L425.850604,176.462314 L425.850604,108.504317 L449.719741,108.504317 C456.821302,123.792401 467.177746,144.505288 470.038097,152.889076 L470.432628,152.889076 C469.643566,145.787514 469.4463,133.852946 469.4463,123.003338 L469.4463,108.504317 L487.594735,108.504317 L487.594735,176.462314 L464.909191,176.462314 C459.188489,164.133215 446.85939,138.685953 443.604507,129.710369 L443.407242,129.710369 C443.999038,136.1215 444.097671,149.239662 444.097671,161.174231 L444.097671,176.462314 Z M496.793541,155.84806 L516.125569,155.84806 C517.309162,161.766028 521.45174,164.33048 527.862872,164.33048 C533.879472,164.33048 536.64119,162.160559 536.64119,158.215247 C536.64119,153.776771 533.682207,152.100013 522.931232,149.535561 C502.908774,144.702554 498.864829,137.403727 498.864829,128.230877 C498.864829,116.789472 507.248617,107.222091 526.186114,107.222091 C545.814041,107.222091 553.90193,117.282636 554.789625,127.934978 L535.55623,127.934978 C535.063066,124.285565 533.189043,120.636151 526.087481,120.636151 C521.550373,120.636151 518.788654,122.312909 518.788654,125.962322 C518.788654,129.710369 521.254474,131.091228 531.709551,133.65568 C552.619704,138.883219 556.860914,146.477944 556.860914,156.143958 C556.860914,168.867589 546.997634,177.744541 527.073809,177.744541 C508.234945,177.744541 498.273033,168.966222 496.793541,155.84806 Z" id="NERGENS" fill="#FEFEFE" mask="url(#mask-2)"></path>
                    </g>
                    <g id="LEFT" transform="translate(0.000000, 19.714199)">
                        <mask id="mask-4" fill="white">
                            <use xlink:href="#path-3"></use>
                        </mask>
                        <g id="Clip-1"></g>
                        <path d="M152.983491,93.4134994 L152.983491,80.985767 L186.81454,40.250422 L154.561616,40.250422 L154.561616,25.4555025 L209.598716,25.4555025 L209.598716,39.5599924 L177.543057,78.6185799 L211.86727,78.6185799 L209.697349,93.4134994 L152.983491,93.4134994 Z M251.050447,24.1732761 C272.453764,24.1732761 284.881496,39.0668284 284.881496,59.3851845 C284.881496,78.6185799 273.341459,94.6957258 250.064119,94.6957258 C227.18131,94.6957258 216.134437,78.7172127 216.134437,59.4838173 C216.134437,39.9545236 228.266271,24.1732761 251.050447,24.1732761 Z M250.45865,38.5736644 C240.792636,38.5736644 236.650058,46.562921 236.650058,59.1879189 C236.650058,71.6156513 240.792636,80.2953374 250.655916,80.2953374 C261.012359,80.2953374 264.464507,71.1224873 264.464507,59.5824501 C264.464507,47.1547177 260.815094,38.5736644 250.45865,38.5736644 Z M314.10276,93.4134994 L295.855692,93.4134994 L295.855692,25.4555025 L319.724829,25.4555025 C326.826391,40.743586 337.182834,61.4564733 340.043185,69.840261 L340.437717,69.840261 C339.648654,62.7386996 339.451389,50.8041312 339.451389,39.9545236 L339.451389,25.4555025 L357.599823,25.4555025 L357.599823,93.4134994 L334.91428,93.4134994 C329.193578,81.0843998 316.864478,55.6371383 313.609596,46.6615538 L313.41233,46.6615538 C314.004127,53.0726855 314.10276,66.1908475 314.10276,78.1254159 L314.10276,93.4134994 Z M371.631636,93.4134994 L371.631636,25.4555025 L400.826944,25.4555025 C422.427527,25.4555025 434.953892,39.1654612 434.953892,58.694755 C434.953892,78.3226815 422.822058,93.4134994 400.531046,93.4134994 L371.631636,93.4134994 Z M391.555461,39.8558908 L391.555461,79.0131111 L399.248819,79.0131111 C409.999794,79.0131111 414.43827,71.4183857 414.43827,58.694755 C414.43827,47.4506161 410.295693,39.8558908 399.446085,39.8558908 L391.555461,39.8558908 Z M496.132182,51.1986624 L496.132182,65.8949491 L465.161484,65.8949491 L465.161484,78.6185799 L499.781595,78.6185799 L497.513041,93.4134994 L446.026721,93.4134994 L446.026721,25.4555025 L497.414408,25.4555025 L497.414408,40.250422 L465.161484,40.250422 L465.161484,51.1986624 L496.132182,51.1986624 Z M535.315358,67.7689723 L528.312429,67.7689723 L528.312429,93.4134994 L508.980401,93.4134994 L508.980401,25.4555025 L542.614185,25.4555025 C558.691331,25.4555025 566.384689,34.0365558 566.384689,44.2943666 C566.384689,53.6644823 560.861252,58.4974894 556.225511,60.3715125 C560.466721,61.8510045 565.00383,66.3881131 565.00383,77.9281503 L565.00383,80.7885014 C565.00383,85.0297117 565.201095,90.4545155 565.891525,93.4134994 L546.954028,93.4134994 C545.869067,90.4545155 545.573169,85.5228757 545.573169,78.6185799 L545.573169,76.8431896 C545.573169,70.9252218 544.093677,67.7689723 535.315358,67.7689723 Z M528.312429,39.3627268 L528.312429,53.8617479 L537.583912,53.8617479 C544.19231,53.8617479 546.559497,51.1000296 546.559497,46.562921 C546.559497,42.0258123 543.699146,39.3627268 537.583912,39.3627268 L528.312429,39.3627268 Z" id="ZONDER" fill="#FEFEFE" mask="url(#mask-4)"></path>
                        <path d="M106.527444,176.462314 L83.052838,176.462314 L59.775498,108.504317 L80.9815493,108.504317 L89.365337,137.699625 C92.0284225,146.773842 93.5079145,153.086341 95.0860392,160.681067 L95.3819376,160.681067 C96.6641639,153.579505 98.4395543,147.267006 101.299905,137.896891 L109.880959,108.504317 L130.297948,108.504317 L106.527444,176.462314 Z M187.136395,134.247477 L187.136395,148.943764 L156.165696,148.943764 L156.165696,161.667395 L190.785808,161.667395 L188.517254,176.462314 L137.030934,176.462314 L137.030934,108.504317 L188.418621,108.504317 L188.418621,123.299237 L156.165696,123.299237 L156.165696,134.247477 L187.136395,134.247477 Z M226.319571,150.817787 L219.316642,150.817787 L219.316642,176.462314 L199.984614,176.462314 L199.984614,108.504317 L233.618398,108.504317 C249.695544,108.504317 257.388902,117.085371 257.388902,127.343181 C257.388902,136.713297 251.865465,141.546304 247.229724,143.420327 C251.470934,144.899819 256.008043,149.436928 256.008043,160.976965 L256.008043,163.837316 C256.008043,168.078527 256.205308,173.50333 256.895738,176.462314 L237.958241,176.462314 C236.87328,173.50333 236.577382,168.57169 236.577382,161.667395 L236.577382,159.892004 C236.577382,153.974037 235.09789,150.817787 226.319571,150.817787 Z M219.316642,122.411542 L219.316642,136.910563 L228.588125,136.910563 C235.196523,136.910563 237.56371,134.148844 237.56371,129.611736 C237.56371,125.074627 234.703359,122.411542 228.588125,122.411542 L219.316642,122.411542 Z M268.165833,176.462314 L268.165833,108.504317 L288.18829,108.504317 L288.18829,133.951579 L308.901178,133.951579 L308.901178,108.504317 L328.923635,108.504317 L328.923635,176.462314 L308.901178,176.462314 L308.901178,148.647866 L288.18829,148.647866 L288.18829,176.462314 L268.165833,176.462314 Z M381.422239,163.245519 L360.117555,163.245519 L356.172243,176.462314 L336.840215,176.462314 L358.342165,108.504317 L384.085325,108.504317 L406.376337,176.462314 L385.564817,176.462314 L381.422239,163.245519 Z M363.47107,148.4506 L377.970091,148.4506 C374.813842,137.798258 372.150756,128.329509 370.671264,121.721112 L370.375366,121.721112 C368.797241,129.019939 366.134156,138.685953 363.47107,148.4506 Z M453.252871,163.245519 L431.948187,163.245519 L428.002875,176.462314 L408.670847,176.462314 L430.172797,108.504317 L455.915957,108.504317 L478.206969,176.462314 L457.395449,176.462314 L453.252871,163.245519 Z M435.301702,148.4506 L449.800723,148.4506 C446.644474,137.798258 443.981388,128.329509 442.501896,121.721112 L442.205998,121.721112 C440.627873,129.019939 437.964788,138.685953 435.301702,148.4506 Z M485.334486,176.462314 L485.334486,108.504317 L505.356944,108.504317 L505.356944,161.667395 L537.31397,161.667395 L535.144048,176.462314 L485.334486,176.462314 Z" id="VERHAAL" fill="#FEFEFE" mask="url(#mask-4)"></path>
                        <text id="-" mask="url(#mask-4)" font-family="AcuminPro-Black, Acumin Pro" font-size="98.6327967" font-weight="700"></text>
                    </g>
                </g>
            </g>
        </g>
    </g>
</svg>