<?xml version="1.0" encoding="UTF-8"?>
<svg width="120px" height="120px" viewBox="0 0 120 120" version="1.1" xmlns="http://www.w3.org/2000/svg" xmlns:xlink="http://www.w3.org/1999/xlink">
    <!-- Generator: Sketch 53.2 (72643) - https://sketchapp.com -->
    <title>Label-Devani</title>
    <desc>Created with Sketch.</desc>
    <defs>
        <rect id="path-1" x="0" y="0.1875" width="120" height="120"></rect>
    </defs>
    <g id="Symbols" stroke="none" stroke-width="1" fill="none" fill-rule="evenodd">
        <g id="Footer" transform="translate(-1.000000, 0.000000)">
            <g id="Label-Devani" transform="translate(1.000000, 0.000000)">
                <g id="Group">
                    <mask id="mask-2" fill="white">
                        <use xlink:href="#path-1"></use>
                    </mask>
                    <g id="Mask" fill-rule="nonzero"></g>
                    <g mask="url(#mask-2)">
                        <g transform="translate(47.592032, 47.001948) rotate(-45.000000) translate(-47.592032, -47.001948) translate(-37.907968, 29.001948)">
                            <rect id="Rectangle" fill="#1A1A1A" fill-rule="nonzero" x="0" y="0" width="170.322582" height="36"></rect>
                            <g id="Devani_logo_GROEN" fill="none" transform="translate(40.096774, 7.980623)" fill-rule="evenodd" stroke-width="1">
                                <g fill="#00FF42">
                                    <polygon id="Path" points="89.9020218 8.59104538 85.4861528 0.23105501 89.8597647 0.23105501"></polygon>
                                    <polygon id="Path" points="51.7227143 0.210050009 47.6660308 0.210050009 47.6237737 0.294070013 40.7569918 14.4934506 33.5098958 0.294070013 33.4676387 0.210050009 29.0306411 0.210050009 29.1574125 0.44110502 33.2774816 8.42300538 39.0878356 19.6606809 39.1300927 19.7447009 42.0458339 19.7447009 42.0880911 19.6606809 51.595943 0.44110502"></polygon>
                                    <polygon id="SVGID_2_" points="85.4650243 3.17175514 85.4650243 19.7236959 89.9020218 19.7236959 89.8808933 11.6367705"></polygon>
                                    <polygon id="Path" points="36.1720943 19.8077159 34.3127811 16.1948557 24.382358 16.1948557 24.382358 11.4057155 31.8407396 11.4057155 30.1081977 8.04491536 24.382358 8.04491536 24.382358 3.82291017 27.9108275 3.82291017 26.1148999 0.357085016 20.0721318 0.357085016 20.0721318 19.8497259 36.1932229 19.8497259"></polygon>
                                    <path d="M67.3578485,19.5346509 L57.5119397,0.315075014 L57.4696826,0.23105501 L54.5539413,0.23105501 L54.5116842,0.315075014 L45.0038323,19.5346509 L44.8981895,19.7657059 L49.0182587,19.7657059 L49.0605158,19.6816859 L50.9832147,15.5437007 L61.3995947,15.5437007 L63.3222936,19.6816859 L63.3645507,19.7657059 L67.4846199,19.7657059 L67.3578485,19.5346509 Z M52.7580137,11.7417955 L56.1597119,4.32703019 L59.6881813,11.7207905 L52.7580137,11.7417955 Z" id="Shape" fill-rule="nonzero"></path>
                                    <polygon id="Path" points="78.5982423 0.168040008 78.5982423 12.4139556 67.526877 0.252060011 67.4423628 0.168040008 64.3575931 0.168040008 64.3575931 7.75084535 68.4987908 15.7747557 68.4987908 7.24672532 79.527899 19.5976659 79.5912847 19.6606809 82.7183115 19.6606809 82.7183115 0.168040008"></polygon>
                                    <path d="M8.11336695,0.315075014 L0.0845142391,0.315075014 L0.0845142391,19.8077159 L7.07806752,19.8077159 C14.5575777,19.8077159 18.3395899,16.5939507 18.3395899,9.99838045 C18.3184613,3.94894018 14.832249,0.315075014 8.11336695,0.315075014 Z M6.16953945,16.1528457 L4.24684051,16.1528457 L4.24684051,3.80190517 L8.13449551,3.80190517 C12.0855362,3.80190517 14.0504922,5.69235525 14.0504922,9.74632044 C14.0716208,14.8085257 11.4516794,16.1528457 6.16953945,16.1528457 Z" id="Shape" fill-rule="nonzero"></path>
                                </g>
                            </g>
                        </g>
                    </g>
                </g>
            </g>
        </g>
    </g>
</svg>